{
    "asset" : {
        "generator" : "Khronos glTF Blender I/O v1.7.17",
        "version" : "2.0"
    },
    "scene" : 0,
    "scenes" : [
        {
            "name" : "Scene",
            "nodes" : [
                0,
                1
            ]
        }
    ],
    "nodes" : [
        {
            "mesh" : 0,
            "name" : "Roll_LP"
        },
        {
            "mesh" : 1,
            "name" : "Roll_HP"
        }
    ],
    "meshes" : [
        {
            "name" : "Vert",
            "primitives" : [
                {
                    "attributes" : {
                        "POSITION" : 0,
                        "NORMAL" : 1,
                        "TEXCOORD_0" : 2
                    },
                    "indices" : 3
                }
            ]
        },
        {
            "name" : "Vert.001",
            "primitives" : [
                {
                    "attributes" : {
                        "POSITION" : 4,
                        "NORMAL" : 5,
                        "TEXCOORD_0" : 6
                    },
                    "indices" : 7
                }
            ]
        }
    ],
    "accessors" : [
        {
            "bufferView" : 0,
            "componentType" : 5126,
            "count" : 229,
            "max" : [
                -0.0002338072081329301,
                0.04823785275220871,
                0.016316810622811317
            ],
            "min" : [
                -0.10618534684181213,
                0.0031838666182011366,
                -0.10581803321838379
            ],
            "type" : "VEC3"
        },
        {
            "bufferView" : 1,
            "componentType" : 5126,
            "count" : 229,
            "type" : "VEC3"
        },
        {
            "bufferView" : 2,
            "componentType" : 5126,
            "count" : 229,
            "type" : "VEC2"
        },
        {
            "bufferView" : 3,
            "componentType" : 5123,
            "count" : 1050,
            "type" : "SCALAR"
        },
        {
            "bufferView" : 4,
            "componentType" : 5126,
            "count" : 1190,
            "max" : [
                0.0005568176275119185,
                0.04824335500597954,
                0.016316810622811317
            ],
            "min" : [
                -0.10641783475875854,
                0.0031484272330999374,
                -0.10655294358730316
            ],
            "type" : "VEC3"
        },
        {
            "bufferView" : 5,
            "componentType" : 5126,
            "count" : 1190,
            "type" : "VEC3"
        },
        {
            "bufferView" : 6,
            "componentType" : 5126,
            "count" : 1190,
            "type" : "VEC2"
        },
        {
            "bufferView" : 7,
            "componentType" : 5123,
            "count" : 6276,
            "type" : "SCALAR"
        }
    ],
    "bufferViews" : [
        {
            "buffer" : 0,
            "byteLength" : 2748,
            "byteOffset" : 0
        },
        {
            "buffer" : 0,
            "byteLength" : 2748,
            "byteOffset" : 2748
        },
        {
            "buffer" : 0,
            "byteLength" : 1832,
            "byteOffset" : 5496
        },
        {
            "buffer" : 0,
            "byteLength" : 2100,
            "byteOffset" : 7328
        },
        {
            "buffer" : 0,
            "byteLength" : 14280,
            "byteOffset" : 9428
        },
        {
            "buffer" : 0,
            "byteLength" : 14280,
            "byteOffset" : 23708
        },
        {
            "buffer" : 0,
            "byteLength" : 9520,
            "byteOffset" : 37988
        },
        {
            "buffer" : 0,
            "byteLength" : 12552,
            "byteOffset" : 47508
        }
    ],
    "buffers" : [
        {
            "byteLength" : 60060,
            "uri" : "data:application/octet-stream;base64,"
        }
    ]
}
